<?xml version="1.0" encoding="iso-8859-1" standalone="no"?> 
<?xml-stylesheet href="rulebook.css" type="text/css"?> 
<svg xmlns="http://www.w3.org/2000/svg" xmlns:xlink="http://www.w3.org/1999/xlink" width="78.245pt" height="151.07336pt" viewBox="-39.1225 -75.53668 78.245 151.07336 "> 
<g transform="translate(0, 75.53668 ) scale(1,-1) translate(0,75.53668 )"> 
            <g> 
 <g stroke="rgb(0.0%,0.0%,0.0%)"> 
 <g fill="rgb(0.0%,0.0%,0.0%)"> 
 <g stroke-width="0.4pt"> 
 <g> 
 <g> 
 <g fill="rgb(0.0%,0.0%,0.0%)"> 
 <g> 
 <g fill="rgb(0.0%,0.0%,0.0%)"> 
 <path d=" M  1.4143 73.92238 C  1.4143 74.70348 0.7811 75.33669 0.0 75.33669 C  -0.7811 75.33669 -1.4143 74.70348 -1.4143 73.92238 C  -1.4143 73.14128 -0.7811 72.50807 0.0 72.50807 C  0.7811 72.50807 1.4143 73.14128 1.4143 73.92238 Z M  0.0 73.92238  " /> 
 </g> 
 </g> 
 <g> 
 <g transform="matrix(1.0,0.0,0.0,1.0,0.0,73.92238)"> 
 <g fill="rgb(0.0%,0.0%,0.0%)"> 
 <text style="stroke:none" transform="scale(1,-1) translate(0.0,0)" text-anchor="middle"  font-size="10"> 
</text> 
</g> 
 </g> 
 </g> 
 </g> 
 </g> 
 <g> 
 <g fill="rgb(0.0%,0.0%,0.0%)"> 
 <g> 
 <g fill="rgb(0.0%,0.0%,0.0%)"> 
 <path d=" M  -5.69887 61.60194 C  -5.69887 62.38304 -6.33208 63.01625 -7.11317 63.01625 C  -7.89427 63.01625 -8.52748 62.38304 -8.52748 61.60194 C  -8.52748 60.82085 -7.89427 60.18764 -7.11317 60.18764 C  -6.33208 60.18764 -5.69887 60.82085 -5.69887 61.60194 Z M  -7.11317 61.60194  " /> 
 </g> 
 </g> 
 <g> 
 <g transform="matrix(1.0,0.0,0.0,1.0,-7.11317,61.60194)"> 
 <g fill="rgb(0.0%,0.0%,0.0%)"> 
 <text style="stroke:none" transform="scale(1,-1) translate(0.0,0)" text-anchor="middle"  font-size="10"> 
</text> 
</g> 
 </g> 
 </g> 
 </g> 
 </g> 
 <g> 
 <g fill="rgb(0.0%,0.0%,0.0%)"> 
 <g> 
 <g fill="rgb(0.0%,0.0%,0.0%)"> 
 <path d=" M  8.52748 61.60194 C  8.52748 62.38304 7.89427 63.01625 7.11317 63.01625 C  6.33208 63.01625 5.69887 62.38304 5.69887 61.60194 C  5.69887 60.82085 6.33208 60.18764 7.11317 60.18764 C  7.89427 60.18764 8.52748 60.82085 8.52748 61.60194 Z M  7.11317 61.60194  " /> 
 </g> 
 </g> 
 <g> 
 <g transform="matrix(1.0,0.0,0.0,1.0,7.11317,61.60194)"> 
 <g fill="rgb(0.0%,0.0%,0.0%)"> 
 <text style="stroke:none" transform="scale(1,-1) translate(0.0,0)" text-anchor="middle"  font-size="10"> 
</text> 
</g> 
 </g> 
 </g> 
 </g> 
 </g> 
 <g> 
 <g fill="rgb(0.0%,0.0%,0.0%)"> 
 <g> 
 <g fill="rgb(0.0%,0.0%,0.0%)"> 
 <path d=" M  -12.81206 49.28151 C  -12.81206 50.0626 -13.44527 50.69582 -14.22636 50.69582 C  -15.00746 50.69582 -15.64067 50.0626 -15.64067 49.28151 C  -15.64067 48.50041 -15.00746 47.8672 -14.22636 47.8672 C  -13.44527 47.8672 -12.81206 48.50041 -12.81206 49.28151 Z M  -14.22636 49.28151  " /> 
 </g> 
 </g> 
 <g> 
 <g transform="matrix(1.0,0.0,0.0,1.0,-14.22636,49.28151)"> 
 <g fill="rgb(0.0%,0.0%,0.0%)"> 
 <text style="stroke:none" transform="scale(1,-1) translate(0.0,0)" text-anchor="middle"  font-size="10"> 
</text> 
</g> 
 </g> 
 </g> 
 </g> 
 </g> 
 <g> 
 <g fill="rgb(0.0%,0.0%,0.0%)"> 
 <g> 
 <g fill="rgb(0.0%,0.0%,0.0%)"> 
 <path d=" M  1.4143 49.28151 C  1.4143 50.0626 0.7811 50.69582 0.0 50.69582 C  -0.7811 50.69582 -1.4143 50.0626 -1.4143 49.28151 C  -1.4143 48.50041 -0.7811 47.8672 0.0 47.8672 C  0.7811 47.8672 1.4143 48.50041 1.4143 49.28151 Z M  0.0 49.28151  " /> 
 </g> 
 </g> 
 <g> 
 <g transform="matrix(1.0,0.0,0.0,1.0,0.0,49.28151)"> 
 <g fill="rgb(0.0%,0.0%,0.0%)"> 
 <text style="stroke:none" transform="scale(1,-1) translate(0.0,0)" text-anchor="middle"  font-size="10"> 
</text> 
</g> 
 </g> 
 </g> 
 </g> 
 </g> 
 <g> 
 <g fill="rgb(0.0%,0.0%,0.0%)"> 
 <g> 
 <g fill="rgb(0.0%,0.0%,0.0%)"> 
 <path d=" M  15.64067 49.28151 C  15.64067 50.0626 15.00746 50.69582 14.22636 50.69582 C  13.44527 50.69582 12.81206 50.0626 12.81206 49.28151 C  12.81206 48.50041 13.44527 47.8672 14.22636 47.8672 C  15.00746 47.8672 15.64067 48.50041 15.64067 49.28151 Z M  14.22636 49.28151  " /> 
 </g> 
 </g> 
 <g> 
 <g transform="matrix(1.0,0.0,0.0,1.0,14.22636,49.28151)"> 
 <g fill="rgb(0.0%,0.0%,0.0%)"> 
 <text style="stroke:none" transform="scale(1,-1) translate(0.0,0)" text-anchor="middle"  font-size="10"> 
</text> 
</g> 
 </g> 
 </g> 
 </g> 
 </g> 
 <g> 
 <g fill="rgb(0.0%,0.0%,0.0%)"> 
 <g> 
 <g fill="rgb(0.0%,0.0%,0.0%)"> 
 <path d=" M  -19.92525 36.96129 C  -19.92525 37.74239 -20.55846 38.3756 -21.33955 38.3756 C  -22.12065 38.3756 -22.75386 37.74239 -22.75386 36.96129 C  -22.75386 36.18019 -22.12065 35.54698 -21.33955 35.54698 C  -20.55846 35.54698 -19.92525 36.18019 -19.92525 36.96129 Z M  -21.33955 36.96129  " /> 
 </g> 
 </g> 
 <g> 
 <g transform="matrix(1.0,0.0,0.0,1.0,-21.33955,36.96129)"> 
 <g fill="rgb(0.0%,0.0%,0.0%)"> 
 <text style="stroke:none" transform="scale(1,-1) translate(0.0,0)" text-anchor="middle"  font-size="10"> 
</text> 
</g> 
 </g> 
 </g> 
 </g> 
 </g> 
 <g> 
 <g fill="rgb(0.0%,0.0%,0.0%)"> 
 <g> 
 <g fill="rgb(0.0%,0.0%,0.0%)"> 
 <path d=" M  -5.69887 36.96129 C  -5.69887 37.74239 -6.33208 38.3756 -7.11317 38.3756 C  -7.89427 38.3756 -8.52748 37.74239 -8.52748 36.96129 C  -8.52748 36.18019 -7.89427 35.54698 -7.11317 35.54698 C  -6.33208 35.54698 -5.69887 36.18019 -5.69887 36.96129 Z M  -7.11317 36.96129  " /> 
 </g> 
 </g> 
 <g> 
 <g transform="matrix(1.0,0.0,0.0,1.0,-7.11317,36.96129)"> 
 <g fill="rgb(0.0%,0.0%,0.0%)"> 
 <text style="stroke:none" transform="scale(1,-1) translate(0.0,0)" text-anchor="middle"  font-size="10"> 
</text> 
</g> 
 </g> 
 </g> 
 </g> 
 </g> 
 <g> 
 <g fill="rgb(0.0%,0.0%,0.0%)"> 
 <g> 
 <g fill="rgb(0.0%,0.0%,0.0%)"> 
 <path d=" M  8.52748 36.96129 C  8.52748 37.74239 7.89427 38.3756 7.11317 38.3756 C  6.33208 38.3756 5.69887 37.74239 5.69887 36.96129 C  5.69887 36.18019 6.33208 35.54698 7.11317 35.54698 C  7.89427 35.54698 8.52748 36.18019 8.52748 36.96129 Z M  7.11317 36.96129  " /> 
 </g> 
 </g> 
 <g> 
 <g transform="matrix(1.0,0.0,0.0,1.0,7.11317,36.96129)"> 
 <g fill="rgb(0.0%,0.0%,0.0%)"> 
 <text style="stroke:none" transform="scale(1,-1) translate(0.0,0)" text-anchor="middle"  font-size="10"> 
</text> 
</g> 
 </g> 
 </g> 
 </g> 
 </g> 
 <g> 
 <g fill="rgb(0.0%,0.0%,0.0%)"> 
 <g> 
 <g fill="rgb(0.0%,0.0%,0.0%)"> 
 <path d=" M  22.75386 36.96129 C  22.75386 37.74239 22.12065 38.3756 21.33955 38.3756 C  20.55846 38.3756 19.92525 37.74239 19.92525 36.96129 C  19.92525 36.18019 20.55846 35.54698 21.33955 35.54698 C  22.12065 35.54698 22.75386 36.18019 22.75386 36.96129 Z M  21.33955 36.96129  " /> 
 </g> 
 </g> 
 <g> 
 <g transform="matrix(1.0,0.0,0.0,1.0,21.33955,36.96129)"> 
 <g fill="rgb(0.0%,0.0%,0.0%)"> 
 <text style="stroke:none" transform="scale(1,-1) translate(0.0,0)" text-anchor="middle"  font-size="10"> 
</text> 
</g> 
 </g> 
 </g> 
 </g> 
 </g> 
 <g> 
 <g fill="rgb(0.0%,0.0%,0.0%)"> 
 <g> 
 <g fill="rgb(0.0%,0.0%,0.0%)"> 
 <path d=" M  -27.03844 24.64085 C  -27.03844 25.42195 -27.67165 26.05516 -28.45274 26.05516 C  -29.23384 26.05516 -29.86705 25.42195 -29.86705 24.64085 C  -29.86705 23.85976 -29.23384 23.22655 -28.45274 23.22655 C  -27.67165 23.22655 -27.03844 23.85976 -27.03844 24.64085 Z M  -28.45274 24.64085  " /> 
 </g> 
 </g> 
 <g> 
 <g transform="matrix(1.0,0.0,0.0,1.0,-28.45274,24.64085)"> 
 <g fill="rgb(0.0%,0.0%,0.0%)"> 
 <text style="stroke:none" transform="scale(1,-1) translate(0.0,0)" text-anchor="middle"  font-size="10"> 
</text> 
</g> 
 </g> 
 </g> 
 </g> 
 </g> 
 <g> 
 <g fill="rgb(0.0%,0.0%,0.0%)"> 
 <g> 
 <g fill="rgb(0.0%,0.0%,0.0%)"> 
 <path d=" M  -12.81206 24.64085 C  -12.81206 25.42195 -13.44527 26.05516 -14.22636 26.05516 C  -15.00746 26.05516 -15.64067 25.42195 -15.64067 24.64085 C  -15.64067 23.85976 -15.00746 23.22655 -14.22636 23.22655 C  -13.44527 23.22655 -12.81206 23.85976 -12.81206 24.64085 Z M  -14.22636 24.64085  " /> 
 </g> 
 </g> 
 <g> 
 <g transform="matrix(1.0,0.0,0.0,1.0,-14.22636,24.64085)"> 
 <g fill="rgb(0.0%,0.0%,0.0%)"> 
 <text style="stroke:none" transform="scale(1,-1) translate(0.0,0)" text-anchor="middle"  font-size="10"> 
</text> 
</g> 
 </g> 
 </g> 
 </g> 
 </g> 
 <g> 
 <g fill="rgb(0.0%,0.0%,0.0%)"> 
 <g> 
 <g fill="rgb(0.0%,0.0%,0.0%)"> 
 <path d=" M  1.4143 24.64085 C  1.4143 25.42195 0.7811 26.05516 0.0 26.05516 C  -0.7811 26.05516 -1.4143 25.42195 -1.4143 24.64085 C  -1.4143 23.85976 -0.7811 23.22655 0.0 23.22655 C  0.7811 23.22655 1.4143 23.85976 1.4143 24.64085 Z M  0.0 24.64085  " /> 
 </g> 
 </g> 
 <g> 
 <g transform="matrix(1.0,0.0,0.0,1.0,0.0,24.64085)"> 
 <g fill="rgb(0.0%,0.0%,0.0%)"> 
 <text style="stroke:none" transform="scale(1,-1) translate(0.0,0)" text-anchor="middle"  font-size="10"> 
</text> 
</g> 
 </g> 
 </g> 
 </g> 
 </g> 
 <g> 
 <g fill="rgb(0.0%,0.0%,0.0%)"> 
 <g> 
 <g fill="rgb(0.0%,0.0%,0.0%)"> 
 <path d=" M  15.64067 24.64085 C  15.64067 25.42195 15.00746 26.05516 14.22636 26.05516 C  13.44527 26.05516 12.81206 25.42195 12.81206 24.64085 C  12.81206 23.85976 13.44527 23.22655 14.22636 23.22655 C  15.00746 23.22655 15.64067 23.85976 15.64067 24.64085 Z M  14.22636 24.64085  " /> 
 </g> 
 </g> 
 <g> 
 <g transform="matrix(1.0,0.0,0.0,1.0,14.22636,24.64085)"> 
 <g fill="rgb(0.0%,0.0%,0.0%)"> 
 <text style="stroke:none" transform="scale(1,-1) translate(0.0,0)" text-anchor="middle"  font-size="10"> 
</text> 
</g> 
 </g> 
 </g> 
 </g> 
 </g> 
 <g> 
 <g fill="rgb(0.0%,0.0%,0.0%)"> 
 <g> 
 <g fill="rgb(0.0%,0.0%,0.0%)"> 
 <path d=" M  29.86705 24.64085 C  29.86705 25.42195 29.23384 26.05516 28.45274 26.05516 C  27.67165 26.05516 27.03844 25.42195 27.03844 24.64085 C  27.03844 23.85976 27.67165 23.22655 28.45274 23.22655 C  29.23384 23.22655 29.86705 23.85976 29.86705 24.64085 Z M  28.45274 24.64085  " /> 
 </g> 
 </g> 
 <g> 
 <g transform="matrix(1.0,0.0,0.0,1.0,28.45274,24.64085)"> 
 <g fill="rgb(0.0%,0.0%,0.0%)"> 
 <text style="stroke:none" transform="scale(1,-1) translate(0.0,0)" text-anchor="middle"  font-size="10"> 
</text> 
</g> 
 </g> 
 </g> 
 </g> 
 </g> 
 <g> 
 <g fill="rgb(0.0%,0.0%,0.0%)"> 
 <g> 
 <g fill="rgb(0.0%,0.0%,0.0%)"> 
 <path d=" M  -34.15161 12.32042 C  -34.15161 13.10152 -34.78482 13.73473 -35.56592 13.73473 C  -36.34702 13.73473 -36.98022 13.10152 -36.98022 12.32042 C  -36.98022 11.53932 -36.34702 10.90611 -35.56592 10.90611 C  -34.78482 10.90611 -34.15161 11.53932 -34.15161 12.32042 Z M  -35.56592 12.32042  " /> 
 </g> 
 </g> 
 <g> 
 <g transform="matrix(1.0,0.0,0.0,1.0,-35.56592,12.32042)"> 
 <g fill="rgb(0.0%,0.0%,0.0%)"> 
 <text style="stroke:none" transform="scale(1,-1) translate(0.0,0)" text-anchor="middle"  font-size="10"> 
</text> 
</g> 
 </g> 
 </g> 
 </g> 
 </g> 
 <g> 
 <g fill="rgb(0.0%,0.0%,0.0%)"> 
 <g> 
 <g fill="rgb(0.0%,0.0%,0.0%)"> 
 <path d=" M  -19.92525 12.32042 C  -19.92525 13.10152 -20.55846 13.73473 -21.33955 13.73473 C  -22.12065 13.73473 -22.75386 13.10152 -22.75386 12.32042 C  -22.75386 11.53932 -22.12065 10.90611 -21.33955 10.90611 C  -20.55846 10.90611 -19.92525 11.53932 -19.92525 12.32042 Z M  -21.33955 12.32042  " /> 
 </g> 
 </g> 
 <g> 
 <g transform="matrix(1.0,0.0,0.0,1.0,-21.33955,12.32042)"> 
 <g fill="rgb(0.0%,0.0%,0.0%)"> 
 <text style="stroke:none" transform="scale(1,-1) translate(0.0,0)" text-anchor="middle"  font-size="10"> 
</text> 
</g> 
 </g> 
 </g> 
 </g> 
 </g> 
 <g> 
 <g fill="rgb(0.0%,0.0%,0.0%)"> 
 <g> 
 <g fill="rgb(0.0%,0.0%,0.0%)"> 
 <path d=" M  -5.69887 12.32042 C  -5.69887 13.10152 -6.33208 13.73473 -7.11317 13.73473 C  -7.89427 13.73473 -8.52748 13.10152 -8.52748 12.32042 C  -8.52748 11.53932 -7.89427 10.90611 -7.11317 10.90611 C  -6.33208 10.90611 -5.69887 11.53932 -5.69887 12.32042 Z M  -7.11317 12.32042  " /> 
 </g> 
 </g> 
 <g> 
 <g transform="matrix(1.0,0.0,0.0,1.0,-7.11317,12.32042)"> 
 <g fill="rgb(0.0%,0.0%,0.0%)"> 
 <text style="stroke:none" transform="scale(1,-1) translate(0.0,0)" text-anchor="middle"  font-size="10"> 
</text> 
</g> 
 </g> 
 </g> 
 </g> 
 </g> 
 <g> 
 <g fill="rgb(0.0%,0.0%,0.0%)"> 
 <g> 
 <g fill="rgb(0.0%,0.0%,0.0%)"> 
 <path d=" M  8.52748 12.32042 C  8.52748 13.10152 7.89427 13.73473 7.11317 13.73473 C  6.33208 13.73473 5.69887 13.10152 5.69887 12.32042 C  5.69887 11.53932 6.33208 10.90611 7.11317 10.90611 C  7.89427 10.90611 8.52748 11.53932 8.52748 12.32042 Z M  7.11317 12.32042  " /> 
 </g> 
 </g> 
 <g> 
 <g transform="matrix(1.0,0.0,0.0,1.0,7.11317,12.32042)"> 
 <g fill="rgb(0.0%,0.0%,0.0%)"> 
 <text style="stroke:none" transform="scale(1,-1) translate(0.0,0)" text-anchor="middle"  font-size="10"> 
</text> 
</g> 
 </g> 
 </g> 
 </g> 
 </g> 
 <g> 
 <g fill="rgb(0.0%,0.0%,0.0%)"> 
 <g> 
 <g fill="rgb(0.0%,0.0%,0.0%)"> 
 <path d=" M  22.75386 12.32042 C  22.75386 13.10152 22.12065 13.73473 21.33955 13.73473 C  20.55846 13.73473 19.92525 13.10152 19.92525 12.32042 C  19.92525 11.53932 20.55846 10.90611 21.33955 10.90611 C  22.12065 10.90611 22.75386 11.53932 22.75386 12.32042 Z M  21.33955 12.32042  " /> 
 </g> 
 </g> 
 <g> 
 <g transform="matrix(1.0,0.0,0.0,1.0,21.33955,12.32042)"> 
 <g fill="rgb(0.0%,0.0%,0.0%)"> 
 <text style="stroke:none" transform="scale(1,-1) translate(0.0,0)" text-anchor="middle"  font-size="10"> 
</text> 
</g> 
 </g> 
 </g> 
 </g> 
 </g> 
 <g> 
 <g fill="rgb(0.0%,0.0%,0.0%)"> 
 <g> 
 <g fill="rgb(0.0%,0.0%,0.0%)"> 
 <path d=" M  36.98022 12.32042 C  36.98022 13.10152 36.34702 13.73473 35.56592 13.73473 C  34.78482 13.73473 34.15161 13.10152 34.15161 12.32042 C  34.15161 11.53932 34.78482 10.90611 35.56592 10.90611 C  36.34702 10.90611 36.98022 11.53932 36.98022 12.32042 Z M  35.56592 12.32042  " /> 
 </g> 
 </g> 
 <g> 
 <g transform="matrix(1.0,0.0,0.0,1.0,35.56592,12.32042)"> 
 <g fill="rgb(0.0%,0.0%,0.0%)"> 
 <text style="stroke:none" transform="scale(1,-1) translate(0.0,0)" text-anchor="middle"  font-size="10"> 
</text> 
</g> 
 </g> 
 </g> 
 </g> 
 </g> 
 <g> 
 <g fill="rgb(0.0%,0.0%,0.0%)"> 
 <g> 
 <g fill="rgb(0.0%,0.0%,0.0%)"> 
 <path d=" M  1.4143 -73.92238 C  1.4143 -73.14128 0.7811 -72.50807 0.0 -72.50807 C  -0.7811 -72.50807 -1.4143 -73.14128 -1.4143 -73.92238 C  -1.4143 -74.70348 -0.7811 -75.33669 0.0 -75.33669 C  0.7811 -75.33669 1.4143 -74.70348 1.4143 -73.92238 Z M  0.0 -73.92238  " /> 
 </g> 
 </g> 
 <g> 
 <g transform="matrix(1.0,0.0,0.0,1.0,0.0,-73.92238)"> 
 <g fill="rgb(0.0%,0.0%,0.0%)"> 
 <text style="stroke:none" transform="scale(1,-1) translate(0.0,0)" text-anchor="middle"  font-size="10"> 
</text> 
</g> 
 </g> 
 </g> 
 </g> 
 </g> 
 <g> 
 <g fill="rgb(0.0%,0.0%,0.0%)"> 
 <g> 
 <g fill="rgb(0.0%,0.0%,0.0%)"> 
 <path d=" M  -5.69887 -61.60194 C  -5.69887 -60.82085 -6.33208 -60.18764 -7.11317 -60.18764 C  -7.89427 -60.18764 -8.52748 -60.82085 -8.52748 -61.60194 C  -8.52748 -62.38304 -7.89427 -63.01625 -7.11317 -63.01625 C  -6.33208 -63.01625 -5.69887 -62.38304 -5.69887 -61.60194 Z M  -7.11317 -61.60194  " /> 
 </g> 
 </g> 
 <g> 
 <g transform="matrix(1.0,0.0,0.0,1.0,-7.11317,-61.60194)"> 
 <g fill="rgb(0.0%,0.0%,0.0%)"> 
 <text style="stroke:none" transform="scale(1,-1) translate(0.0,0)" text-anchor="middle"  font-size="10"> 
</text> 
</g> 
 </g> 
 </g> 
 </g> 
 </g> 
 <g> 
 <g fill="rgb(0.0%,0.0%,0.0%)"> 
 <g> 
 <g fill="rgb(0.0%,0.0%,0.0%)"> 
 <path d=" M  8.52748 -61.60194 C  8.52748 -60.82085 7.89427 -60.18764 7.11317 -60.18764 C  6.33208 -60.18764 5.69887 -60.82085 5.69887 -61.60194 C  5.69887 -62.38304 6.33208 -63.01625 7.11317 -63.01625 C  7.89427 -63.01625 8.52748 -62.38304 8.52748 -61.60194 Z M  7.11317 -61.60194  " /> 
 </g> 
 </g> 
 <g> 
 <g transform="matrix(1.0,0.0,0.0,1.0,7.11317,-61.60194)"> 
 <g fill="rgb(0.0%,0.0%,0.0%)"> 
 <text style="stroke:none" transform="scale(1,-1) translate(0.0,0)" text-anchor="middle"  font-size="10"> 
</text> 
</g> 
 </g> 
 </g> 
 </g> 
 </g> 
 <g> 
 <g fill="rgb(0.0%,0.0%,0.0%)"> 
 <g> 
 <g fill="rgb(0.0%,0.0%,0.0%)"> 
 <path d=" M  -12.81206 -49.28151 C  -12.81206 -48.50041 -13.44527 -47.8672 -14.22636 -47.8672 C  -15.00746 -47.8672 -15.64067 -48.50041 -15.64067 -49.28151 C  -15.64067 -50.0626 -15.00746 -50.69582 -14.22636 -50.69582 C  -13.44527 -50.69582 -12.81206 -50.0626 -12.81206 -49.28151 Z M  -14.22636 -49.28151  " /> 
 </g> 
 </g> 
 <g> 
 <g transform="matrix(1.0,0.0,0.0,1.0,-14.22636,-49.28151)"> 
 <g fill="rgb(0.0%,0.0%,0.0%)"> 
 <text style="stroke:none" transform="scale(1,-1) translate(0.0,0)" text-anchor="middle"  font-size="10"> 
</text> 
</g> 
 </g> 
 </g> 
 </g> 
 </g> 
 <g> 
 <g fill="rgb(0.0%,0.0%,0.0%)"> 
 <g> 
 <g fill="rgb(0.0%,0.0%,0.0%)"> 
 <path d=" M  1.4143 -49.28151 C  1.4143 -48.50041 0.7811 -47.8672 0.0 -47.8672 C  -0.7811 -47.8672 -1.4143 -48.50041 -1.4143 -49.28151 C  -1.4143 -50.0626 -0.7811 -50.69582 0.0 -50.69582 C  0.7811 -50.69582 1.4143 -50.0626 1.4143 -49.28151 Z M  0.0 -49.28151  " /> 
 </g> 
 </g> 
 <g> 
 <g transform="matrix(1.0,0.0,0.0,1.0,0.0,-49.28151)"> 
 <g fill="rgb(0.0%,0.0%,0.0%)"> 
 <text style="stroke:none" transform="scale(1,-1) translate(0.0,0)" text-anchor="middle"  font-size="10"> 
</text> 
</g> 
 </g> 
 </g> 
 </g> 
 </g> 
 <g> 
 <g fill="rgb(0.0%,0.0%,0.0%)"> 
 <g> 
 <g fill="rgb(0.0%,0.0%,0.0%)"> 
 <path d=" M  15.64067 -49.28151 C  15.64067 -48.50041 15.00746 -47.8672 14.22636 -47.8672 C  13.44527 -47.8672 12.81206 -48.50041 12.81206 -49.28151 C  12.81206 -50.0626 13.44527 -50.69582 14.22636 -50.69582 C  15.00746 -50.69582 15.64067 -50.0626 15.64067 -49.28151 Z M  14.22636 -49.28151  " /> 
 </g> 
 </g> 
 <g> 
 <g transform="matrix(1.0,0.0,0.0,1.0,14.22636,-49.28151)"> 
 <g fill="rgb(0.0%,0.0%,0.0%)"> 
 <text style="stroke:none" transform="scale(1,-1) translate(0.0,0)" text-anchor="middle"  font-size="10"> 
</text> 
</g> 
 </g> 
 </g> 
 </g> 
 </g> 
 <g> 
 <g fill="rgb(0.0%,0.0%,0.0%)"> 
 <g> 
 <g fill="rgb(0.0%,0.0%,0.0%)"> 
 <path d=" M  -19.92525 -36.96129 C  -19.92525 -36.18019 -20.55846 -35.54698 -21.33955 -35.54698 C  -22.12065 -35.54698 -22.75386 -36.18019 -22.75386 -36.96129 C  -22.75386 -37.74239 -22.12065 -38.3756 -21.33955 -38.3756 C  -20.55846 -38.3756 -19.92525 -37.74239 -19.92525 -36.96129 Z M  -21.33955 -36.96129  " /> 
 </g> 
 </g> 
 <g> 
 <g transform="matrix(1.0,0.0,0.0,1.0,-21.33955,-36.96129)"> 
 <g fill="rgb(0.0%,0.0%,0.0%)"> 
 <text style="stroke:none" transform="scale(1,-1) translate(0.0,0)" text-anchor="middle"  font-size="10"> 
</text> 
</g> 
 </g> 
 </g> 
 </g> 
 </g> 
 <g> 
 <g fill="rgb(0.0%,0.0%,0.0%)"> 
 <g> 
 <g fill="rgb(0.0%,0.0%,0.0%)"> 
 <path d=" M  -5.69887 -36.96129 C  -5.69887 -36.18019 -6.33208 -35.54698 -7.11317 -35.54698 C  -7.89427 -35.54698 -8.52748 -36.18019 -8.52748 -36.96129 C  -8.52748 -37.74239 -7.89427 -38.3756 -7.11317 -38.3756 C  -6.33208 -38.3756 -5.69887 -37.74239 -5.69887 -36.96129 Z M  -7.11317 -36.96129  " /> 
 </g> 
 </g> 
 <g> 
 <g transform="matrix(1.0,0.0,0.0,1.0,-7.11317,-36.96129)"> 
 <g fill="rgb(0.0%,0.0%,0.0%)"> 
 <text style="stroke:none" transform="scale(1,-1) translate(0.0,0)" text-anchor="middle"  font-size="10"> 
</text> 
</g> 
 </g> 
 </g> 
 </g> 
 </g> 
 <g> 
 <g fill="rgb(0.0%,0.0%,0.0%)"> 
 <g> 
 <g fill="rgb(0.0%,0.0%,0.0%)"> 
 <path d=" M  8.52748 -36.96129 C  8.52748 -36.18019 7.89427 -35.54698 7.11317 -35.54698 C  6.33208 -35.54698 5.69887 -36.18019 5.69887 -36.96129 C  5.69887 -37.74239 6.33208 -38.3756 7.11317 -38.3756 C  7.89427 -38.3756 8.52748 -37.74239 8.52748 -36.96129 Z M  7.11317 -36.96129  " /> 
 </g> 
 </g> 
 <g> 
 <g transform="matrix(1.0,0.0,0.0,1.0,7.11317,-36.96129)"> 
 <g fill="rgb(0.0%,0.0%,0.0%)"> 
 <text style="stroke:none" transform="scale(1,-1) translate(0.0,0)" text-anchor="middle"  font-size="10"> 
</text> 
</g> 
 </g> 
 </g> 
 </g> 
 </g> 
 <g> 
 <g fill="rgb(0.0%,0.0%,0.0%)"> 
 <g> 
 <g fill="rgb(0.0%,0.0%,0.0%)"> 
 <path d=" M  22.75386 -36.96129 C  22.75386 -36.18019 22.12065 -35.54698 21.33955 -35.54698 C  20.55846 -35.54698 19.92525 -36.18019 19.92525 -36.96129 C  19.92525 -37.74239 20.55846 -38.3756 21.33955 -38.3756 C  22.12065 -38.3756 22.75386 -37.74239 22.75386 -36.96129 Z M  21.33955 -36.96129  " /> 
 </g> 
 </g> 
 <g> 
 <g transform="matrix(1.0,0.0,0.0,1.0,21.33955,-36.96129)"> 
 <g fill="rgb(0.0%,0.0%,0.0%)"> 
 <text style="stroke:none" transform="scale(1,-1) translate(0.0,0)" text-anchor="middle"  font-size="10"> 
</text> 
</g> 
 </g> 
 </g> 
 </g> 
 </g> 
 <g> 
 <g fill="rgb(0.0%,0.0%,0.0%)"> 
 <g> 
 <g fill="rgb(0.0%,0.0%,0.0%)"> 
 <path d=" M  -27.03844 -24.64085 C  -27.03844 -23.85976 -27.67165 -23.22655 -28.45274 -23.22655 C  -29.23384 -23.22655 -29.86705 -23.85976 -29.86705 -24.64085 C  -29.86705 -25.42195 -29.23384 -26.05516 -28.45274 -26.05516 C  -27.67165 -26.05516 -27.03844 -25.42195 -27.03844 -24.64085 Z M  -28.45274 -24.64085  " /> 
 </g> 
 </g> 
 <g> 
 <g transform="matrix(1.0,0.0,0.0,1.0,-28.45274,-24.64085)"> 
 <g fill="rgb(0.0%,0.0%,0.0%)"> 
 <text style="stroke:none" transform="scale(1,-1) translate(0.0,0)" text-anchor="middle"  font-size="10"> 
</text> 
</g> 
 </g> 
 </g> 
 </g> 
 </g> 
 <g> 
 <g fill="rgb(0.0%,0.0%,0.0%)"> 
 <g> 
 <g fill="rgb(0.0%,0.0%,0.0%)"> 
 <path d=" M  -12.81206 -24.64085 C  -12.81206 -23.85976 -13.44527 -23.22655 -14.22636 -23.22655 C  -15.00746 -23.22655 -15.64067 -23.85976 -15.64067 -24.64085 C  -15.64067 -25.42195 -15.00746 -26.05516 -14.22636 -26.05516 C  -13.44527 -26.05516 -12.81206 -25.42195 -12.81206 -24.64085 Z M  -14.22636 -24.64085  " /> 
 </g> 
 </g> 
 <g> 
 <g transform="matrix(1.0,0.0,0.0,1.0,-14.22636,-24.64085)"> 
 <g fill="rgb(0.0%,0.0%,0.0%)"> 
 <text style="stroke:none" transform="scale(1,-1) translate(0.0,0)" text-anchor="middle"  font-size="10"> 
</text> 
</g> 
 </g> 
 </g> 
 </g> 
 </g> 
 <g> 
 <g fill="rgb(0.0%,0.0%,0.0%)"> 
 <g> 
 <g fill="rgb(0.0%,0.0%,0.0%)"> 
 <path d=" M  1.4143 -24.64085 C  1.4143 -23.85976 0.7811 -23.22655 0.0 -23.22655 C  -0.7811 -23.22655 -1.4143 -23.85976 -1.4143 -24.64085 C  -1.4143 -25.42195 -0.7811 -26.05516 0.0 -26.05516 C  0.7811 -26.05516 1.4143 -25.42195 1.4143 -24.64085 Z M  0.0 -24.64085  " /> 
 </g> 
 </g> 
 <g> 
 <g transform="matrix(1.0,0.0,0.0,1.0,0.0,-24.64085)"> 
 <g fill="rgb(0.0%,0.0%,0.0%)"> 
 <text style="stroke:none" transform="scale(1,-1) translate(0.0,0)" text-anchor="middle"  font-size="10"> 
</text> 
</g> 
 </g> 
 </g> 
 </g> 
 </g> 
 <g> 
 <g fill="rgb(0.0%,0.0%,0.0%)"> 
 <g> 
 <g fill="rgb(0.0%,0.0%,0.0%)"> 
 <path d=" M  15.64067 -24.64085 C  15.64067 -23.85976 15.00746 -23.22655 14.22636 -23.22655 C  13.44527 -23.22655 12.81206 -23.85976 12.81206 -24.64085 C  12.81206 -25.42195 13.44527 -26.05516 14.22636 -26.05516 C  15.00746 -26.05516 15.64067 -25.42195 15.64067 -24.64085 Z M  14.22636 -24.64085  " /> 
 </g> 
 </g> 
 <g> 
 <g transform="matrix(1.0,0.0,0.0,1.0,14.22636,-24.64085)"> 
 <g fill="rgb(0.0%,0.0%,0.0%)"> 
 <text style="stroke:none" transform="scale(1,-1) translate(0.0,0)" text-anchor="middle"  font-size="10"> 
</text> 
</g> 
 </g> 
 </g> 
 </g> 
 </g> 
 <g> 
 <g fill="rgb(0.0%,0.0%,0.0%)"> 
 <g> 
 <g fill="rgb(0.0%,0.0%,0.0%)"> 
 <path d=" M  29.86705 -24.64085 C  29.86705 -23.85976 29.23384 -23.22655 28.45274 -23.22655 C  27.67165 -23.22655 27.03844 -23.85976 27.03844 -24.64085 C  27.03844 -25.42195 27.67165 -26.05516 28.45274 -26.05516 C  29.23384 -26.05516 29.86705 -25.42195 29.86705 -24.64085 Z M  28.45274 -24.64085  " /> 
 </g> 
 </g> 
 <g> 
 <g transform="matrix(1.0,0.0,0.0,1.0,28.45274,-24.64085)"> 
 <g fill="rgb(0.0%,0.0%,0.0%)"> 
 <text style="stroke:none" transform="scale(1,-1) translate(0.0,0)" text-anchor="middle"  font-size="10"> 
</text> 
</g> 
 </g> 
 </g> 
 </g> 
 </g> 
 <g> 
 <g fill="rgb(0.0%,0.0%,0.0%)"> 
 <g> 
 <g fill="rgb(0.0%,0.0%,0.0%)"> 
 <path d=" M  -34.15161 -12.32042 C  -34.15161 -11.53932 -34.78482 -10.90611 -35.56592 -10.90611 C  -36.34702 -10.90611 -36.98022 -11.53932 -36.98022 -12.32042 C  -36.98022 -13.10152 -36.34702 -13.73473 -35.56592 -13.73473 C  -34.78482 -13.73473 -34.15161 -13.10152 -34.15161 -12.32042 Z M  -35.56592 -12.32042  " /> 
 </g> 
 </g> 
 <g> 
 <g transform="matrix(1.0,0.0,0.0,1.0,-35.56592,-12.32042)"> 
 <g fill="rgb(0.0%,0.0%,0.0%)"> 
 <text style="stroke:none" transform="scale(1,-1) translate(0.0,0)" text-anchor="middle"  font-size="10"> 
</text> 
</g> 
 </g> 
 </g> 
 </g> 
 </g> 
 <g> 
 <g fill="rgb(0.0%,0.0%,0.0%)"> 
 <g> 
 <g fill="rgb(0.0%,0.0%,0.0%)"> 
 <path d=" M  -19.92525 -12.32042 C  -19.92525 -11.53932 -20.55846 -10.90611 -21.33955 -10.90611 C  -22.12065 -10.90611 -22.75386 -11.53932 -22.75386 -12.32042 C  -22.75386 -13.10152 -22.12065 -13.73473 -21.33955 -13.73473 C  -20.55846 -13.73473 -19.92525 -13.10152 -19.92525 -12.32042 Z M  -21.33955 -12.32042  " /> 
 </g> 
 </g> 
 <g> 
 <g transform="matrix(1.0,0.0,0.0,1.0,-21.33955,-12.32042)"> 
 <g fill="rgb(0.0%,0.0%,0.0%)"> 
 <text style="stroke:none" transform="scale(1,-1) translate(0.0,0)" text-anchor="middle"  font-size="10"> 
</text> 
</g> 
 </g> 
 </g> 
 </g> 
 </g> 
 <g> 
 <g fill="rgb(0.0%,0.0%,0.0%)"> 
 <g> 
 <g fill="rgb(0.0%,0.0%,0.0%)"> 
 <path d=" M  -5.69887 -12.32042 C  -5.69887 -11.53932 -6.33208 -10.90611 -7.11317 -10.90611 C  -7.89427 -10.90611 -8.52748 -11.53932 -8.52748 -12.32042 C  -8.52748 -13.10152 -7.89427 -13.73473 -7.11317 -13.73473 C  -6.33208 -13.73473 -5.69887 -13.10152 -5.69887 -12.32042 Z M  -7.11317 -12.32042  " /> 
 </g> 
 </g> 
 <g> 
 <g transform="matrix(1.0,0.0,0.0,1.0,-7.11317,-12.32042)"> 
 <g fill="rgb(0.0%,0.0%,0.0%)"> 
 <text style="stroke:none" transform="scale(1,-1) translate(0.0,0)" text-anchor="middle"  font-size="10"> 
</text> 
</g> 
 </g> 
 </g> 
 </g> 
 </g> 
 <g> 
 <g fill="rgb(0.0%,0.0%,0.0%)"> 
 <g> 
 <g fill="rgb(0.0%,0.0%,0.0%)"> 
 <path d=" M  8.52748 -12.32042 C  8.52748 -11.53932 7.89427 -10.90611 7.11317 -10.90611 C  6.33208 -10.90611 5.69887 -11.53932 5.69887 -12.32042 C  5.69887 -13.10152 6.33208 -13.73473 7.11317 -13.73473 C  7.89427 -13.73473 8.52748 -13.10152 8.52748 -12.32042 Z M  7.11317 -12.32042  " /> 
 </g> 
 </g> 
 <g> 
 <g transform="matrix(1.0,0.0,0.0,1.0,7.11317,-12.32042)"> 
 <g fill="rgb(0.0%,0.0%,0.0%)"> 
 <text style="stroke:none" transform="scale(1,-1) translate(0.0,0)" text-anchor="middle"  font-size="10"> 
</text> 
</g> 
 </g> 
 </g> 
 </g> 
 </g> 
 <g> 
 <g fill="rgb(0.0%,0.0%,0.0%)"> 
 <g> 
 <g fill="rgb(0.0%,0.0%,0.0%)"> 
 <path d=" M  22.75386 -12.32042 C  22.75386 -11.53932 22.12065 -10.90611 21.33955 -10.90611 C  20.55846 -10.90611 19.92525 -11.53932 19.92525 -12.32042 C  19.92525 -13.10152 20.55846 -13.73473 21.33955 -13.73473 C  22.12065 -13.73473 22.75386 -13.10152 22.75386 -12.32042 Z M  21.33955 -12.32042  " /> 
 </g> 
 </g> 
 <g> 
 <g transform="matrix(1.0,0.0,0.0,1.0,21.33955,-12.32042)"> 
 <g fill="rgb(0.0%,0.0%,0.0%)"> 
 <text style="stroke:none" transform="scale(1,-1) translate(0.0,0)" text-anchor="middle"  font-size="10"> 
</text> 
</g> 
 </g> 
 </g> 
 </g> 
 </g> 
 <g> 
 <g fill="rgb(0.0%,0.0%,0.0%)"> 
 <g> 
 <g fill="rgb(0.0%,0.0%,0.0%)"> 
 <path d=" M  36.98022 -12.32042 C  36.98022 -11.53932 36.34702 -10.90611 35.56592 -10.90611 C  34.78482 -10.90611 34.15161 -11.53932 34.15161 -12.32042 C  34.15161 -13.10152 34.78482 -13.73473 35.56592 -13.73473 C  36.34702 -13.73473 36.98022 -13.10152 36.98022 -12.32042 Z M  35.56592 -12.32042  " /> 
 </g> 
 </g> 
 <g> 
 <g transform="matrix(1.0,0.0,0.0,1.0,35.56592,-12.32042)"> 
 <g fill="rgb(0.0%,0.0%,0.0%)"> 
 <text style="stroke:none" transform="scale(1,-1) translate(0.0,0)" text-anchor="middle"  font-size="10"> 
</text> 
</g> 
 </g> 
 </g> 
 </g> 
 </g> 
 <g> 
 <g fill="rgb(0.0%,0.0%,0.0%)"> 
 <g> 
 <g fill="rgb(0.0%,0.0%,0.0%)"> 
 <path d=" M  29.86705 0.0 C  29.86705 0.7811 29.23384 1.4143 28.45274 1.4143 C  27.67165 1.4143 27.03844 0.7811 27.03844 0.0 C  27.03844 -0.7811 27.67165 -1.4143 28.45274 -1.4143 C  29.23384 -1.4143 29.86705 -0.7811 29.86705 0.0 Z M  28.45274 0.0  " /> 
 </g> 
 </g> 
 <g> 
 <g transform="matrix(1.0,0.0,0.0,1.0,28.45274,0.0)"> 
 <g fill="rgb(0.0%,0.0%,0.0%)"> 
 <text style="stroke:none" transform="scale(1,-1) translate(0.0,0)" text-anchor="middle"  font-size="10"> 
</text> 
</g> 
 </g> 
 </g> 
 </g> 
 </g> 
 <g> 
 <g fill="rgb(0.0%,0.0%,0.0%)"> 
 <g> 
 <g fill="rgb(0.0%,0.0%,0.0%)"> 
 <path d=" M  15.64067 0.0 C  15.64067 0.7811 15.00746 1.4143 14.22636 1.4143 C  13.44527 1.4143 12.81206 0.7811 12.81206 0.0 C  12.81206 -0.7811 13.44527 -1.4143 14.22636 -1.4143 C  15.00746 -1.4143 15.64067 -0.7811 15.64067 0.0 Z M  14.22636 0.0  " /> 
 </g> 
 </g> 
 <g> 
 <g transform="matrix(1.0,0.0,0.0,1.0,14.22636,0.0)"> 
 <g fill="rgb(0.0%,0.0%,0.0%)"> 
 <text style="stroke:none" transform="scale(1,-1) translate(0.0,0)" text-anchor="middle"  font-size="10"> 
</text> 
</g> 
 </g> 
 </g> 
 </g> 
 </g> 
 <g> 
 <g fill="rgb(0.0%,0.0%,0.0%)"> 
 <g> 
 <g fill="rgb(0.0%,0.0%,0.0%)"> 
 <path d=" M  1.4143 0.0 C  1.4143 0.7811 0.7811 1.4143 0.0 1.4143 C  -0.7811 1.4143 -1.4143 0.7811 -1.4143 0.0 C  -1.4143 -0.7811 -0.7811 -1.4143 0.0 -1.4143 C  0.7811 -1.4143 1.4143 -0.7811 1.4143 0.0 Z M  0.0 0.0  " /> 
 </g> 
 </g> 
 <g> 
 <g transform="matrix(1.0,0.0,0.0,1.0,0.0,0.0)"> 
 <g fill="rgb(0.0%,0.0%,0.0%)"> 
 <text style="stroke:none" transform="scale(1,-1) translate(0.0,0)" text-anchor="middle"  font-size="10"> 
</text> 
</g> 
 </g> 
 </g> 
 </g> 
 </g> 
 <g> 
 <g fill="rgb(0.0%,0.0%,0.0%)"> 
 <g> 
 <g fill="rgb(0.0%,0.0%,0.0%)"> 
 <path d=" M  -12.81206 0.0 C  -12.81206 0.7811 -13.44527 1.4143 -14.22636 1.4143 C  -15.00746 1.4143 -15.64067 0.7811 -15.64067 0.0 C  -15.64067 -0.7811 -15.00746 -1.4143 -14.22636 -1.4143 C  -13.44527 -1.4143 -12.81206 -0.7811 -12.81206 0.0 Z M  -14.22636 0.0  " /> 
 </g> 
 </g> 
 <g> 
 <g transform="matrix(1.0,0.0,0.0,1.0,-14.22636,0.0)"> 
 <g fill="rgb(0.0%,0.0%,0.0%)"> 
 <text style="stroke:none" transform="scale(1,-1) translate(0.0,0)" text-anchor="middle"  font-size="10"> 
</text> 
</g> 
 </g> 
 </g> 
 </g> 
 </g> 
 <g> 
 <g fill="rgb(0.0%,0.0%,0.0%)"> 
 <g> 
 <g fill="rgb(0.0%,0.0%,0.0%)"> 
 <path d=" M  -27.03844 0.0 C  -27.03844 0.7811 -27.67165 1.4143 -28.45274 1.4143 C  -29.23384 1.4143 -29.86705 0.7811 -29.86705 0.0 C  -29.86705 -0.7811 -29.23384 -1.4143 -28.45274 -1.4143 C  -27.67165 -1.4143 -27.03844 -0.7811 -27.03844 0.0 Z M  -28.45274 0.0  " /> 
 </g> 
 </g> 
 <g> 
 <g transform="matrix(1.0,0.0,0.0,1.0,-28.45274,0.0)"> 
 <g fill="rgb(0.0%,0.0%,0.0%)"> 
 <text style="stroke:none" transform="scale(1,-1) translate(0.0,0)" text-anchor="middle"  font-size="10"> 
</text> 
</g> 
 </g> 
 </g> 
 </g> 
 </g> 
 <g> 
 <g fill="rgb(0.0%,0.0%,100.0%)"> 
 <path d=" M  28.45274 0.0 M  32.00932 0.0 C  32.00932 1.96426 30.417 3.55658 28.45274 3.55658 C  26.48848 3.55658 24.89616 1.96426 24.89616 0.0 C  24.89616 -1.96426 26.48848 -3.55658 28.45274 -3.55658 C  30.417 -3.55658 32.00932 -1.96426 32.00932 0.0 Z M  28.45274 0.0  " /> 
 </g> 
 </g> 
 <g> 
 <g fill="rgb(0.0%,0.0%,0.0%)"> 
 <path d=" M  -21.33955 12.32042 M  -17.78297 12.32042 C  -17.78297 14.28468 -19.37529 15.877 -21.33955 15.877 C  -23.30382 15.877 -24.89613 14.28468 -24.89613 12.32042 C  -24.89613 10.35616 -23.30382 8.76384 -21.33955 8.76384 C  -19.37529 8.76384 -17.78297 10.35616 -17.78297 12.32042 Z M  -21.33955 12.32042  " /> 
 </g> 
 </g> 
 <g> 
 <g fill="rgb(75.0%,0.0%,25.0%)"> 
 <g fill-opacity="0.5"> 
 <path d=" M  -35.56592 12.32042 M  -32.00934 12.32042 C  -32.00934 14.28468 -33.60165 15.877 -35.56592 15.877 C  -37.53018 15.877 -39.1225 14.28468 -39.1225 12.32042 C  -39.1225 10.35616 -37.53018 8.76384 -35.56592 8.76384 C  -33.60165 8.76384 -32.00934 10.35616 -32.00934 12.32042 Z M  -35.56592 12.32042  " style="stroke:none"/> 
 </g> 
 </g> 
 </g> 
 <g> 
 <g fill="rgb(75.0%,0.0%,25.0%)"> 
 <g fill-opacity="0.5"> 
 <path d=" M  -14.22636 24.64085 M  -10.66978 24.64085 C  -10.66978 26.60512 -12.2621 28.19743 -14.22636 28.19743 C  -16.19063 28.19743 -17.78294 26.60512 -17.78294 24.64085 C  -17.78294 22.67659 -16.19063 21.08427 -14.22636 21.08427 C  -12.2621 21.08427 -10.66978 22.67659 -10.66978 24.64085 Z M  -14.22636 24.64085  " style="stroke:none"/> 
 </g> 
 </g> 
 </g> 
 <g> 
 <g fill="rgb(75.0%,0.0%,25.0%)"> 
 <g fill-opacity="0.5"> 
 <path d=" M  -28.45274 0.0 M  -24.89616 0.0 C  -24.89616 1.96426 -26.48848 3.55658 -28.45274 3.55658 C  -30.417 3.55658 -32.00932 1.96426 -32.00932 0.0 C  -32.00932 -1.96426 -30.417 -3.55658 -28.45274 -3.55658 C  -26.48848 -3.55658 -24.89616 -1.96426 -24.89616 0.0 Z M  -28.45274 0.0  " style="stroke:none"/> 
 </g> 
 </g> 
 </g> 
 <g> 
 <g fill="rgb(75.0%,0.0%,25.0%)"> 
 <g fill-opacity="0.5"> 
 <path d=" M  14.22636 0.0 M  17.78294 0.0 C  17.78294 1.96426 16.19063 3.55658 14.22636 3.55658 C  12.2621 3.55658 10.66978 1.96426 10.66978 0.0 C  10.66978 -1.96426 12.2621 -3.55658 14.22636 -3.55658 C  16.19063 -3.55658 17.78294 -1.96426 17.78294 0.0 Z M  14.22636 0.0  " style="stroke:none"/> 
 </g> 
 </g> 
 </g> 
 <g> 
 <g fill="rgb(75.0%,0.0%,25.0%)"> 
 <g fill-opacity="0.5"> 
 <path d=" M  21.33955 12.32042 M  24.89613 12.32042 C  24.89613 14.28468 23.30382 15.877 21.33955 15.877 C  19.37529 15.877 17.78297 14.28468 17.78297 12.32042 C  17.78297 10.35616 19.37529 8.76384 21.33955 8.76384 C  23.30382 8.76384 24.89613 10.35616 24.89613 12.32042 Z M  21.33955 12.32042  " style="stroke:none"/> 
 </g> 
 </g> 
 </g> 
 <g> 
 <g fill="rgb(75.0%,0.0%,25.0%)"> 
 <g fill-opacity="0.5"> 
 <path d=" M  35.56592 12.32042 M  39.1225 12.32042 C  39.1225 14.28468 37.53018 15.877 35.56592 15.877 C  33.60165 15.877 32.00934 14.28468 32.00934 12.32042 C  32.00934 10.35616 33.60165 8.76384 35.56592 8.76384 C  37.53018 8.76384 39.1225 10.35616 39.1225 12.32042 Z M  35.56592 12.32042  " style="stroke:none"/> 
 </g> 
 </g> 
 </g> 
 </g> 
 </g> 
 </g> 
 </g> 
 </g> 
 
                       </g> 
</svg> 
